<svg xmlns="http://www.w3.org/2000/svg" viewBox="0 0 519.71 55.13"><defs><style>.a{fill:#48525a;}</style></defs><title>logo</title><path class="a" d="M584.58,254.82V245h-61c-9.37,0-14.1,4.8-14.1,12.6V287.5c0,7.8,4.72,12.6,14.1,12.6h61v-9.84h-64.5V254.82h64.5ZM625.3,267.5V245H614.9V300.1h10.4V277.19h55.52V300.1h10.4V245h-10.4V267.5H625.3ZM792.18,245v45.29H737.45V245H727.05V287.5c0,7.8,4.72,12.6,14.1,12.6h47.33c9.37,0,14.1-4.8,14.1-12.6V245h-10.4ZM902.36,300.1c10.24,0,15-4.25,15-11.58v-6.46c0-2-.71-3-2.2-4.25l-6.62-5.67,6.62-5.67c1.5-1.26,2.2-2.2,2.2-4.25v-5.67c0-7.33-4.73-11.58-15-11.58h-64V300.1h64ZM848.8,254.35h57.89v13.39H848.8V254.35Zm57.89,36.39H848.81V277h57.89v13.78Zm107.5,9.37c10.24,0,15-4.25,15-11.58v-6.46c0-2-.71-3-2.21-4.25l-6.62-5.67,6.62-5.67c1.5-1.26,2.21-2.2,2.21-4.25v-5.67c0-7.33-4.73-11.58-15-11.58h-64V300.1h64Zm-53.55-45.76h57.89v13.39H960.64V254.35Zm57.89,36.39H960.64V277h57.89v13.78Z" transform="translate(-509.45 -244.97)"/></svg>